<svg width="47" height="40" viewBox="0 0 47 40" fill="none" xmlns="http://www.w3.org/2000/svg">
<path d="M0.869391 0.0755024C0.758926 0.11034 0.549624 0.261309 0.404275 0.406469C-0.107353 0.917437 -0.136423 1.6026 0.334507 2.14841C0.718228 2.60131 0.549624 2.57808 3.85776 2.61292L6.82288 2.64195L6.86358 2.78712C6.89846 2.91486 7.29962 4.3026 7.87521 6.27099C8.05544 6.88066 8.33451 7.84453 9.48567 11.8161C9.7066 12.5826 10.0554 13.7961 10.2647 14.5161C10.4682 15.2361 10.7299 16.1245 10.8403 16.4903C11.0613 17.2336 11.1717 17.6168 13.3113 24.9968C14.445 28.9045 14.8694 30.2807 14.9857 30.4549C15.0845 30.6 15.2589 30.7452 15.4566 30.8439L15.7764 31.0065H28.3694H40.9624L41.2822 30.8497C42.2066 30.3794 42.2415 29.1078 41.3519 28.5852L41.0729 28.4226L29.0438 28.3936L17.0147 28.3645L16.7938 27.6097C16.6775 27.1916 16.445 26.3961 16.2822 25.8329C16.1194 25.2697 15.9857 24.7936 15.9857 24.7761C15.9857 24.7529 21.4043 24.7355 28.0264 24.7355C36.6136 24.7355 40.1368 24.7181 40.3171 24.6716C40.4566 24.6368 40.6833 24.5149 40.8171 24.3987C41.2531 24.0271 41.381 23.4929 41.1833 22.9297L41.0845 22.6626L41.788 20.5781C42.5031 18.4471 44.8868 11.4097 45.3752 9.9755C45.5787 9.38905 45.6775 9.16841 45.7589 9.14518C46.1078 9.03486 46.5089 8.42518 46.5089 8.01292C46.5089 7.50195 46.1892 6.99679 45.724 6.78776C45.5031 6.68324 44.7996 6.67744 28.1019 6.67744H10.7182L9.86358 3.72776C8.9159 0.470341 8.90427 0.435501 8.37521 0.162598L8.06707 1.71661e-05L4.56707 0.00582504C2.18334 0.011631 1.00893 0.0348568 0.869391 0.0755024ZM18.3519 11.7C18.5206 13.0065 18.6543 14.1387 18.6601 14.2142V14.342L15.7996 14.3303L12.9392 14.3129L12.8287 13.9645C12.5729 13.1168 11.5089 9.40647 11.5089 9.35421C11.5089 9.30776 12.4799 9.29615 14.7764 9.30195L18.0496 9.31937L18.3519 11.7ZM25.8694 11.8161V14.342L23.5903 14.3303L21.3113 14.3129L21.0031 11.9323C20.8345 10.62 20.7008 9.49357 20.695 9.41808V9.29034H23.2822H25.8694V11.8161ZM33.7182 9.36002C33.7182 9.40066 33.6892 9.60389 33.6601 9.81292C33.631 10.022 33.5031 11.0381 33.3694 12.0774C33.2415 13.1168 33.1252 14.0516 33.1078 14.1561L33.0729 14.342L30.7938 14.3303L28.5147 14.3129L28.4973 11.7987L28.4857 9.29034H31.1019C33.1543 9.29034 33.7182 9.30776 33.7182 9.36002ZM42.7589 9.53421C42.7182 9.67357 42.3345 10.8116 41.9101 12.06L41.1368 14.342H38.4101H35.6892L35.724 14.1503C35.7531 13.9587 36.3345 9.40066 36.3345 9.33099C36.3345 9.30776 37.7996 9.29034 39.5845 9.29034H42.8345L42.7589 9.53421ZM19.0322 17.1116C19.0787 17.3555 19.6485 21.8439 19.6485 21.9949V22.1226L17.4275 22.111L15.2066 22.0936L15.0496 21.571C14.7647 20.6303 13.7182 17.0245 13.7182 16.9897C13.7182 16.9723 14.9043 16.9549 16.3578 16.9549H18.9973L19.0322 17.1116ZM25.8694 19.5387V22.1226H24.0961C22.724 22.1226 22.3113 22.1052 22.2938 22.0471C22.2822 22.0123 22.1368 20.9032 21.974 19.5968C21.8113 18.2845 21.6659 17.1581 21.6543 17.0826L21.6252 16.9549H23.7473H25.8694V19.5387ZM32.7299 17.0245C32.7299 17.1058 32.1659 21.5826 32.1136 21.9078L32.0787 22.1226L30.2996 22.111L28.5147 22.0936L28.4973 19.5213L28.4857 16.9549H30.6078C32.2008 16.9549 32.7299 16.9723 32.7299 17.0245ZM40.195 17.0826C40.0903 17.431 38.5903 21.8787 38.5438 21.989L38.4857 22.1226H36.5961H34.7008L34.7357 21.931C34.7822 21.6349 35.3461 17.1581 35.3461 17.0478C35.3461 16.9607 35.5613 16.9549 37.7938 16.9549H40.2357L40.195 17.0826Z" fill="#7F3047"/>
<path d="M19.695 32.7774C18.5322 33.0619 17.4798 34.0897 17.1252 35.2916C16.7996 36.4006 17.0903 37.6432 17.8752 38.491C19.0787 39.7858 20.8287 40.0761 22.2996 39.2226C22.4566 39.1355 22.7589 38.88 22.974 38.6594C23.6136 38.0032 24.0089 37.0684 24.0089 36.2032C24.0089 35.4368 23.7415 34.6819 23.2415 34.0374C22.445 33.0097 20.945 32.4755 19.695 32.7774Z" fill="#7F3047"/>
<path d="M35.381 32.7832C34.8113 32.9226 34.2589 33.2477 33.7764 33.7297C33.0613 34.4497 32.7241 35.251 32.7124 36.2323C32.7066 37.1961 33.0031 37.8929 33.7182 38.6187C34.2241 39.1239 34.7531 39.4258 35.4392 39.6C37.1368 40.0355 38.8461 39.0948 39.5089 37.3645C39.7124 36.8303 39.7648 35.9768 39.6252 35.4194C39.1601 33.5497 37.2124 32.3419 35.381 32.7832Z" fill="#7F3047"/>
</svg>
