<svg width="48" height="48" viewBox="0 0 48 48" fill="none" xmlns="http://www.w3.org/2000/svg">
<path d="M20.0231 0.233025C13.3142 1.44131 7.87114 4.90508 4.10818 10.3596C2.10588 13.2826 0.794019 16.5967 0.23015 20.2446C0.0115075 21.6715 0 22.2699 0 34.629V47.5289H2.7618H5.5121L5.55813 34.56C5.60416 20.797 5.59265 21.1422 6.14502 19.0593C7.28426 14.767 10.1726 10.7969 13.9241 8.38035C17.1462 6.29749 21.3464 5.22729 25.0864 5.53799C29.7009 5.91774 33.7746 7.8395 36.9391 11.1191C39.3097 13.5817 40.9322 16.6197 41.6687 19.9454C41.9679 21.3033 42.0945 24.6865 41.8989 26.1825C41.3465 30.3137 39.4593 34.0191 36.4098 36.942C33.9587 39.2895 31.0703 40.8546 27.7331 41.6371C26.4788 41.9363 25.0864 42.0283 23.1301 41.9708C21.2544 41.9133 20.7481 41.8442 18.7918 41.3724L18.5271 41.3149V37.3333C18.5271 34.1917 18.5616 33.3632 18.6767 33.4092C20.5524 34.2377 22.2095 34.6405 23.763 34.6405C29.5398 34.652 34.3384 30.1411 34.6031 24.4448C34.7067 22.2354 34.3845 20.6589 33.4639 18.8177C32.3246 16.5737 30.2072 14.6519 27.8137 13.6968C22.0254 11.3838 15.5121 14.3988 13.4753 20.3367C12.8884 22.0628 12.8884 22.1433 12.8884 35.2849V47.5289H19.3902C26.5133 47.5289 26.9736 47.4944 29.6894 46.827C35.7654 45.3195 41.0128 41.4069 44.2579 35.9639C45.5928 33.7199 46.5709 31.2573 47.1463 28.6566C47.3995 27.5058 47.4455 26.965 47.4915 24.5024C47.5606 21.2918 47.48 20.4172 46.8931 18.0121C44.9484 10.1065 39.022 3.69679 31.3005 1.17664C29.5973 0.624283 29.0335 0.486191 27.503 0.233025C25.5467 -0.0776787 21.8067 -0.0776787 20.0231 0.233025Z" fill="#7F3047" fill-opacity="0.75"/>
</svg>
