<svg width="29" height="40" viewBox="0 0 29 40" fill="none" xmlns="http://www.w3.org/2000/svg">
<path d="M19.9501 3.34341C19.7111 3.57176 18.6284 4.59005 17.5397 5.60617C16.451 6.62228 14.7386 8.23411 13.7266 9.18895C12.7167 10.1377 11.6964 11.0965 11.4616 11.3127C11.2269 11.529 10.0009 12.6802 8.73334 13.8711L6.43894 16.039L6.56289 17.4631C6.72578 19.4066 6.87688 21.1546 7.13813 24.3081C7.25898 25.7789 7.42312 27.757 7.50503 28.7084C7.76302 31.7379 8.16156 36.6208 8.16171 36.7916C8.16761 36.8893 8.19693 36.9408 8.23804 36.9214C8.2731 36.8999 9.21863 35.9211 10.3435 34.7473C17.0394 27.719 18.6416 26.0335 20.508 24.0877C21.6455 22.8978 22.5876 21.8905 22.5984 21.8603C22.6115 21.824 22.3178 19.1984 21.9532 16.0282C21.5826 12.8559 21.0961 8.61758 20.8615 6.60738C20.6309 4.6054 20.4307 2.95588 20.4126 2.94937C20.3944 2.94285 20.187 3.1211 19.9501 3.34341ZM18.5552 11.6053C17.5559 19.9067 17.42 21.0463 17.3882 21.192L17.352 21.3497L14.0663 20.1908C11.406 19.2494 10.7811 19.0114 10.805 18.9449C10.8202 18.9025 11.8987 17.2681 13.1939 15.3153C14.4973 13.3586 16.3377 10.5907 17.2792 9.1666C18.229 7.73861 19.0352 6.53913 19.0768 6.49941C19.156 6.41176 19.0409 7.53151 18.5552 11.6053ZM20.7393 15.0529C21.1146 18.2884 21.4168 20.9853 21.4132 21.0523C21.4131 21.1479 21.1618 21.2011 19.9854 21.3389C19.1087 21.4408 18.5487 21.4788 18.5315 21.4316C18.5048 21.3538 19.9075 9.37928 19.964 9.22198C19.9792 9.17963 20.0021 9.15372 20.0203 9.16024C20.0384 9.16675 20.364 11.8175 20.7393 15.0529ZM16.4867 8.34937C16.3688 8.5256 15.2422 10.2179 13.9808 12.1146C12.7195 14.0112 11.2747 16.1904 10.7693 16.9514C10.2617 17.7186 9.82051 18.3388 9.79026 18.3279C9.76001 18.3171 9.30888 17.8615 8.7926 17.321C8.18092 16.6848 7.86243 16.2973 7.88198 16.2428C7.90152 16.1884 8.33636 15.7571 8.85171 15.2728C9.36488 14.7945 10.1461 14.0641 10.5844 13.6614C11.0187 13.2505 12.5522 11.8135 13.9883 10.4576C15.4222 9.10781 16.6165 8.00668 16.6468 8.01754C16.671 8.02623 16.5963 8.17701 16.4867 8.34937ZM8.5686 18.668C9.24373 19.3748 9.31276 19.4678 9.30811 19.6711C9.30532 19.793 9.25583 20.4446 9.20371 21.1225C8.65998 28.1737 8.63749 28.4456 8.5804 28.1861C8.55977 28.1104 8.45319 26.9043 8.33482 25.5026C7.95521 20.9475 7.79402 19.0183 7.74174 18.46C7.71413 18.1564 7.69768 17.8978 7.7042 17.8796C7.72809 17.8131 7.87143 17.9465 8.5686 18.668ZM20.4297 22.5365C20.3036 22.7166 13.188 30.1338 13.1725 30.1009C13.1531 30.0598 14.9085 27.4526 17.7276 23.3286L18.1758 22.6699L19.2708 22.5303C19.8703 22.4586 20.394 22.4076 20.4303 22.4206C20.4666 22.4336 20.4613 22.4864 20.4297 22.5365ZM16.9069 22.4945C16.8874 22.5489 15.9928 23.8806 14.9239 25.4502C11.7971 30.0511 9.67363 33.1887 9.54704 33.3891C9.48157 33.4953 9.41533 33.5467 9.40199 33.5078C9.38648 33.4749 9.4628 32.2729 9.57666 30.8522C9.68665 29.4233 9.83511 27.4686 9.90414 26.4963C10.1716 22.8973 10.2727 21.5882 10.3261 20.9449C10.3548 20.5795 10.3852 20.2285 10.3948 20.1636C10.3993 20.0559 10.583 20.1151 13.6686 21.2227C16.621 22.2825 16.9374 22.4098 16.9069 22.4945Z" fill="#7F3047" fill-opacity="0.75"/>
</svg>
