<svg width="49" height="49" viewBox="0 0 49 49" fill="none" xmlns="http://www.w3.org/2000/svg">
<path d="M23.1766 0.039608C22.9866 0.0607224 22.4692 0.108238 22.0204 0.134636C21.577 0.166313 21.1229 0.213825 21.0173 0.245502C20.9118 0.2719 20.7587 0.298298 20.6689 0.298298C20.3205 0.298298 18.3512 0.72065 17.6068 0.958225C17.4907 0.995182 17.2162 1.07437 16.9997 1.14301C14.946 1.75542 12.4277 2.98552 10.506 4.31065C8.42595 5.74665 6.39337 7.68948 4.91513 9.66398C4.38191 10.3714 3.5636 11.6068 3.22044 12.2139C2.71362 13.1009 1.9745 14.6372 1.7686 15.2126C1.71053 15.3869 1.6419 15.5558 1.62606 15.5822C1.60494 15.6139 1.54159 15.7934 1.47824 15.9782C1.41488 16.1682 1.34625 16.3688 1.31985 16.4269C1.29874 16.485 1.22482 16.712 1.16147 16.9285C1.09284 17.1449 1.02421 17.3719 0.997809 17.43C0.971412 17.4881 0.929177 17.6306 0.90278 17.7468C0.876383 17.8629 0.802471 18.1586 0.739118 18.4067C0.638809 18.8343 0.575456 19.1141 0.395956 19.9747C0.353721 20.1859 0.316765 20.434 0.316765 20.529C0.316765 20.624 0.279809 20.8722 0.237574 21.0728C0.195338 21.2787 0.158382 21.606 0.158382 21.8119C0.158382 22.0125 0.121427 22.419 0.0791912 22.7041C-0.0263971 23.3905 -0.0263971 25.0693 0.0791912 25.7451C0.121427 26.0196 0.158382 26.4261 0.158382 26.6426C0.163662 26.859 0.190059 27.1547 0.216456 27.3025C0.242853 27.445 0.285088 27.746 0.311485 27.9624C0.353721 28.3425 0.385397 28.5115 0.554339 29.2823C0.596574 29.4723 0.670486 29.8049 0.718 30.0214C0.765515 30.2379 0.818309 30.4649 0.844706 30.5229C0.881662 30.6233 0.934456 30.808 1.06116 31.3043C1.08756 31.4152 1.12979 31.5419 1.15619 31.5947C1.18259 31.6422 1.25122 31.8375 1.30929 32.0276C1.44656 32.4499 1.57327 32.8089 1.63134 32.9515C1.65774 33.0095 1.78444 33.3158 1.91643 33.6378C2.24375 34.4192 2.24375 34.4297 2.65555 35.2375C3.2046 36.3197 4.35024 38.1887 4.49806 38.2467C4.51918 38.2573 4.5403 38.289 4.5403 38.3206C4.5403 38.384 5.0788 39.0862 5.74928 39.8939C6.36169 40.633 7.73962 42.0215 8.52625 42.692C9.5663 43.5789 10.5324 44.2705 12.0635 45.205C12.4436 45.4426 14.0221 46.245 14.5712 46.4879C14.7876 46.5829 15.1942 46.7466 15.4687 46.8469C15.7432 46.9525 16.0441 47.0633 16.1286 47.1003C16.2184 47.132 16.4295 47.2059 16.6038 47.2587C16.778 47.3115 16.9944 47.3854 17.0895 47.4276C17.1792 47.4646 17.2954 47.4963 17.3429 47.4963C17.3904 47.4963 17.4749 47.5227 17.5329 47.5491C17.5857 47.5807 17.7336 47.6282 17.855 47.6546C17.9817 47.681 18.2351 47.7444 18.4252 47.7866C18.9161 47.9081 19.4071 48.0136 19.7661 48.077C19.9403 48.1087 20.0987 48.1456 20.1251 48.1615C20.1462 48.1773 20.3627 48.209 20.6003 48.2354C20.8431 48.2618 21.181 48.3093 21.3552 48.3357C21.5295 48.3621 21.994 48.3885 22.3847 48.3885C22.7754 48.3938 23.2928 48.4202 23.5356 48.4571C24.1375 48.5416 26.376 48.436 27.8489 48.2565C28.1498 48.2248 29.0896 48.04 29.9079 47.8553C30.1349 47.8077 30.6734 47.6652 31.2805 47.4963C31.3703 47.4699 31.5128 47.4276 31.5973 47.3959C31.687 47.3643 31.9088 47.2904 32.0988 47.227C32.6109 47.0528 32.8538 46.9683 32.9699 46.9208C33.028 46.8944 33.2445 46.8099 33.4451 46.7255C35.2137 46.0233 37.204 44.8935 38.8301 43.674C40.0866 42.7342 41.8288 41.0923 42.8161 39.9203C44.9912 37.3387 46.6278 34.2819 47.5939 30.9981C47.6467 30.8239 47.7048 30.6233 47.7312 30.5493C47.7629 30.4332 47.8526 30.0689 48.0427 29.2031C48.1007 28.9444 48.2222 28.2317 48.333 27.4873C48.3753 27.1811 48.4122 26.7059 48.4122 26.4314C48.4122 26.1569 48.4492 25.7292 48.4914 25.4811C48.5917 24.9109 48.5917 23.6808 48.4914 22.947C48.4492 22.6408 48.4122 22.1973 48.4122 21.9545C48.4122 21.4529 48.2063 19.9958 48.0427 19.2778C48.0163 19.1616 47.9424 18.8502 47.8843 18.5915C47.7312 17.9051 47.6573 17.657 47.3088 16.5853C46.7598 14.9064 46.0523 13.3543 45.1232 11.8074C44.7272 11.1422 44.611 10.9627 44.0567 10.1655C43.6924 9.63758 43.1064 8.90374 42.5415 8.25965C42.172 7.83202 40.831 6.48049 40.5459 6.23764C40.4456 6.14789 40.208 5.94727 40.018 5.78361C39.2049 5.07617 37.431 3.78271 37.2779 3.78271C37.2515 3.78271 37.2199 3.76159 37.2093 3.74047C37.1565 3.60849 35.182 2.55261 34.105 2.07218C33.2445 1.69206 32.3523 1.35946 31.6237 1.14301C31.4072 1.07437 31.1327 0.995182 31.0166 0.958225C30.5784 0.820961 30.1455 0.71537 29.3007 0.541149C29.0843 0.493637 28.7306 0.425003 28.5141 0.377487C28.3029 0.335255 28.0231 0.298298 27.8964 0.298298C27.775 0.298298 27.6113 0.27718 27.5321 0.245502C27.4582 0.219105 27.0464 0.166313 26.6188 0.139915C26.1912 0.108238 25.6632 0.0660019 25.4468 0.039608C24.9611 -0.0131874 23.6465 -0.0131874 23.1766 0.039608ZM26.1965 9.95435C26.2229 9.95963 26.244 11.5698 26.2492 13.5338L26.2651 17.1132L28.8256 17.1396L31.3861 17.166L31.3967 19.7265C31.4072 21.2892 31.3914 22.3187 31.3597 22.3662C31.3175 22.4349 31.006 22.4454 28.9998 22.4296C27.7275 22.419 26.5871 22.4296 26.4604 22.4454L26.2334 22.4771L26.2492 26.5898C26.2598 29.7944 26.2809 30.7183 26.3337 30.7711C26.3654 30.8028 26.3971 30.8925 26.3971 30.9559C26.3971 31.1142 26.7297 31.7372 26.9145 31.9378C27.0834 32.1226 27.4002 32.3127 27.7803 32.4658C28.039 32.5661 28.1868 32.5766 29.8023 32.603L31.5445 32.6347L31.5603 35.4434L31.5709 38.2573H28.8678C25.9642 38.2573 25.4468 38.2256 24.3909 37.9775C23.7151 37.8191 22.7965 37.4179 22.2686 37.0589C22.1313 36.9638 22.0046 36.8846 21.9835 36.8846C21.9412 36.8846 21.5558 36.5204 21.1493 36.1033C20.1621 35.0791 19.5444 33.4583 19.4282 31.6052C19.4071 31.2726 19.386 29.0869 19.3807 26.7534C19.3807 24.4147 19.3596 22.493 19.3438 22.4771C19.3279 22.4613 18.4674 22.4402 17.4326 22.4296C16.3979 22.419 15.5426 22.4085 15.5373 22.3979C15.5215 22.3874 15.5162 19.6051 15.5215 18.0794C15.5215 17.8682 15.4951 17.884 16.2606 17.6412C16.6618 17.5145 17.5488 17.0868 17.8919 16.8545C18.045 16.749 18.1876 16.6645 18.2034 16.6645C18.2562 16.6645 18.9953 16.0362 19.3174 15.7142C20.2518 14.7903 21.0965 13.254 21.4503 11.8338C21.6245 11.1369 21.6562 10.968 21.7037 10.4928C21.7301 10.2183 21.7776 9.97546 21.8093 9.95963C21.8515 9.93323 25.9853 9.92795 26.1965 9.95435Z" fill="#7F3047" fill-opacity="0.75"/>
</svg>
