<svg width="40" height="40" viewBox="0 0 40 40" fill="none" xmlns="http://www.w3.org/2000/svg">
<g clip-path="url(#clip0_25_320)">
<path d="M19.0204 0.0652809C18.0081 0.187729 17.2408 0.355076 16.5347 0.612219C13.5918 1.66528 11.3551 3.7265 10.151 6.49385C9.0367 9.04487 8.9469 11.8775 9.89792 14.4734C10.1142 15.0694 10.6449 16.1183 11 16.653C11.8122 17.8775 12.8245 18.8979 14.0204 19.7102C17.0857 21.7918 20.951 22.1224 24.3551 20.6C26.2449 19.7551 27.804 18.4408 28.9387 16.7428C31.0653 13.5632 31.3428 9.52242 29.6734 6.10201C29.1591 5.04487 28.5673 4.20814 27.7143 3.33059C26.0245 1.59181 24.0816 0.571404 21.6694 0.159157C21.2694 0.0938511 20.951 0.0693626 20.1632 0.0611992C19.6122 0.0530357 19.0979 0.0571175 19.0204 0.0652809ZM21.4285 3.24079C22.3959 3.39589 23.6775 3.96324 24.604 4.64895C25.9224 5.62446 27.0122 7.21222 27.4 8.71426C27.5877 9.44895 27.6122 9.67752 27.6122 10.7551C27.6122 11.902 27.5632 12.2857 27.3224 13.0857C27 14.1632 26.5061 15.0245 25.702 15.9102C24.5061 17.2326 23.0122 18.0694 21.3673 18.3265C20.8612 18.4081 20.0122 18.4408 19.4285 18.4041C17.9265 18.3102 16.6245 17.8449 15.4694 16.9836C15.0898 16.6979 14.351 15.9918 14.0408 15.6122C12.804 14.102 12.2 12.1755 12.3591 10.2571C12.5673 7.76732 13.7551 5.73059 15.7755 4.39589C16.6245 3.83671 17.7183 3.39181 18.7143 3.19997C19.0979 3.1265 20.8816 3.151 21.4285 3.24079Z" fill="#7F3047"/>
<path d="M9.77549 21.3592C8.31019 21.9592 5.55508 24.4163 3.951 26.551C3.26937 27.4612 2.77141 28.2857 2.12651 29.5918C0.902022 32.0612 0.314267 34.1551 0.0612061 36.9388C-0.0408348 38.0857 -1.84355e-05 38.7837 0.199982 39.1796C0.314267 39.3959 0.526512 39.6326 0.775492 39.8163L0.97141 39.9592H20.0122H39.053L39.2775 39.7755C39.6245 39.4939 39.7877 39.2775 39.8816 38.9796C39.9918 38.6245 40.0204 37.9959 39.9632 37.2449C39.7347 34.3918 39.1265 32.102 37.9592 29.7347C36.9918 27.7673 35.9592 26.2694 34.4612 24.6694C33.151 23.2653 30.9347 21.5632 30.0694 21.2979C29.5184 21.1306 29.2 21.2449 28.0735 22.0122C27.2 22.6041 26.7918 22.849 26.0857 23.2C24.8245 23.8326 23.4 24.2857 22.0816 24.4694C21.4408 24.5632 19.1388 24.6 18.4 24.5306C17.4939 24.449 16.649 24.2612 15.6122 23.9061C14.3143 23.4612 13.5306 23.0653 12.0816 22.1143C11.2408 21.5632 10.8939 21.3592 10.6775 21.2816C10.4163 21.1877 10.1388 21.2122 9.77549 21.3592ZM30.9592 25.5959C31.7306 26.2653 33.0898 27.7306 33.7183 28.5714C34.7632 29.9796 35.7306 31.9673 36.2653 33.8163C36.5551 34.8204 36.7143 35.6286 36.8367 36.7061L36.8612 36.9388H20.0041C10.7306 36.9388 3.14284 36.9306 3.14284 36.9184C3.14284 36.9102 3.17957 36.6204 3.22447 36.2775C3.65712 32.9061 5.08978 29.8041 7.41223 27.2163C8.16733 26.3755 10.0694 24.653 10.2449 24.653C10.2735 24.653 10.5632 24.8204 10.8939 25.0286C12.8122 26.2367 15.0449 27.0939 17.3265 27.4898C18.6326 27.7224 21.3592 27.7224 22.6735 27.4939C25.1306 27.0653 27.2979 26.2081 29.4286 24.8245L29.7347 24.6245L30.1428 24.9347C30.3632 25.102 30.7306 25.4 30.9592 25.5959Z" fill="#7F3047"/>
</g>
<defs>
<clipPath id="clip0_25_320">
<rect width="40" height="40" fill="white"/>
</clipPath>
</defs>
</svg>
